<mxfile host="app.diagrams.net" modified="2021-07-24T16:04:39.206Z" agent="5.0 (Windows NT 10.0; Win64; x64) AppleWebKit/537.36 (KHTML, like Gecko) Chrome/91.0.4472.164 Safari/537.36" etag="6q54MV8NGSbPOcy4hl0-" version="14.9.2" type="github">
  <diagram id="QIbt0FnQ2eUw6YFCLvba" name="Page-1">
    <mxGraphModel dx="723" dy="433" grid="1" gridSize="10" guides="1" tooltips="1" connect="1" arrows="1" fold="1" page="1" pageScale="1" pageWidth="850" pageHeight="1100" math="0" shadow="0">
      <root>
        <mxCell id="0" />
        <mxCell id="1" parent="0" />
        <mxCell id="Ui8pRBqQDjIUiMeEuSIe-3" value="" style="shape=parallelogram;html=1;strokeWidth=2;perimeter=parallelogramPerimeter;whiteSpace=wrap;rounded=1;arcSize=12;size=0.23;" parent="1" vertex="1">
          <mxGeometry x="215" y="280" width="120" height="60" as="geometry" />
        </mxCell>
        <mxCell id="Ui8pRBqQDjIUiMeEuSIe-41" style="edgeStyle=orthogonalEdgeStyle;rounded=0;orthogonalLoop=1;jettySize=auto;html=1;entryX=0.5;entryY=0;entryDx=0;entryDy=0;" parent="1" source="Ui8pRBqQDjIUiMeEuSIe-4" target="Ui8pRBqQDjIUiMeEuSIe-40" edge="1">
          <mxGeometry relative="1" as="geometry" />
        </mxCell>
        <mxCell id="Ui8pRBqQDjIUiMeEuSIe-4" value="" style="shape=parallelogram;html=1;strokeWidth=2;perimeter=parallelogramPerimeter;whiteSpace=wrap;rounded=1;arcSize=12;size=0.23;" parent="1" vertex="1">
          <mxGeometry x="510" y="280" width="120" height="60" as="geometry" />
        </mxCell>
        <mxCell id="Ui8pRBqQDjIUiMeEuSIe-35" style="edgeStyle=orthogonalEdgeStyle;rounded=0;orthogonalLoop=1;jettySize=auto;html=1;entryX=0;entryY=0.5;entryDx=0;entryDy=0;entryPerimeter=0;exitX=0;exitY=0.5;exitDx=0;exitDy=0;" parent="1" source="Ui8pRBqQDjIUiMeEuSIe-3" target="Ui8pRBqQDjIUiMeEuSIe-10" edge="1">
          <mxGeometry relative="1" as="geometry">
            <mxPoint x="190" y="640" as="targetPoint" />
            <Array as="points">
              <mxPoint x="190" y="310" />
              <mxPoint x="190" y="670" />
            </Array>
          </mxGeometry>
        </mxCell>
        <mxCell id="Ui8pRBqQDjIUiMeEuSIe-5" value="Teacher Login" style="text;html=1;strokeColor=none;fillColor=none;align=center;verticalAlign=middle;whiteSpace=wrap;rounded=0;" parent="1" vertex="1">
          <mxGeometry x="235" y="300" width="80" height="20" as="geometry" />
        </mxCell>
        <mxCell id="Ui8pRBqQDjIUiMeEuSIe-6" value="Student Login" style="text;html=1;strokeColor=none;fillColor=none;align=center;verticalAlign=middle;whiteSpace=wrap;rounded=0;" parent="1" vertex="1">
          <mxGeometry x="530" y="300" width="80" height="20" as="geometry" />
        </mxCell>
        <mxCell id="Ui8pRBqQDjIUiMeEuSIe-7" value="" style="shape=display;whiteSpace=wrap;html=1;" parent="1" vertex="1">
          <mxGeometry x="225" y="430" width="120" height="60" as="geometry" />
        </mxCell>
        <mxCell id="Ui8pRBqQDjIUiMeEuSIe-8" value="" style="shape=display;whiteSpace=wrap;html=1;" parent="1" vertex="1">
          <mxGeometry x="225" y="500" width="120" height="60" as="geometry" />
        </mxCell>
        <mxCell id="Ui8pRBqQDjIUiMeEuSIe-9" value="" style="shape=display;whiteSpace=wrap;html=1;" parent="1" vertex="1">
          <mxGeometry x="230" y="570" width="120" height="60" as="geometry" />
        </mxCell>
        <mxCell id="Ui8pRBqQDjIUiMeEuSIe-10" value="" style="shape=display;whiteSpace=wrap;html=1;" parent="1" vertex="1">
          <mxGeometry x="230" y="640" width="120" height="60" as="geometry" />
        </mxCell>
        <mxCell id="Ui8pRBqQDjIUiMeEuSIe-11" value="All Students" style="text;html=1;strokeColor=none;fillColor=none;align=center;verticalAlign=middle;whiteSpace=wrap;rounded=0;" parent="1" vertex="1">
          <mxGeometry x="250" y="450" width="70" height="20" as="geometry" />
        </mxCell>
        <mxCell id="Ui8pRBqQDjIUiMeEuSIe-12" value="Absentees" style="text;html=1;strokeColor=none;fillColor=none;align=center;verticalAlign=middle;whiteSpace=wrap;rounded=0;" parent="1" vertex="1">
          <mxGeometry x="250" y="520" width="70" height="20" as="geometry" />
        </mxCell>
        <mxCell id="Ui8pRBqQDjIUiMeEuSIe-13" value="Verified Students" style="text;html=1;strokeColor=none;fillColor=none;align=center;verticalAlign=middle;whiteSpace=wrap;rounded=0;" parent="1" vertex="1">
          <mxGeometry x="235" y="590" width="110" height="20" as="geometry" />
        </mxCell>
        <mxCell id="Ui8pRBqQDjIUiMeEuSIe-14" value="Verification Failed" style="text;html=1;strokeColor=none;fillColor=none;align=center;verticalAlign=middle;whiteSpace=wrap;rounded=0;" parent="1" vertex="1">
          <mxGeometry x="235" y="660" width="110" height="20" as="geometry" />
        </mxCell>
        <mxCell id="Ui8pRBqQDjIUiMeEuSIe-28" style="edgeStyle=orthogonalEdgeStyle;rounded=0;orthogonalLoop=1;jettySize=auto;html=1;exitX=0;exitY=0.5;exitDx=0;exitDy=0;entryX=0.5;entryY=0;entryDx=0;entryDy=0;" parent="1" source="Ui8pRBqQDjIUiMeEuSIe-22" target="Ui8pRBqQDjIUiMeEuSIe-3" edge="1">
          <mxGeometry relative="1" as="geometry" />
        </mxCell>
        <mxCell id="Ui8pRBqQDjIUiMeEuSIe-29" style="edgeStyle=orthogonalEdgeStyle;rounded=0;orthogonalLoop=1;jettySize=auto;html=1;exitX=1;exitY=0.5;exitDx=0;exitDy=0;" parent="1" source="Ui8pRBqQDjIUiMeEuSIe-22" target="Ui8pRBqQDjIUiMeEuSIe-4" edge="1">
          <mxGeometry relative="1" as="geometry" />
        </mxCell>
        <mxCell id="Ui8pRBqQDjIUiMeEuSIe-22" value="" style="rhombus;whiteSpace=wrap;html=1;" parent="1" vertex="1">
          <mxGeometry x="383" y="170" width="80" height="80" as="geometry" />
        </mxCell>
        <object label="" id="Ui8pRBqQDjIUiMeEuSIe-24">
          <mxCell style="strokeWidth=2;html=1;shape=mxgraph.flowchart.terminator;whiteSpace=wrap;noLabel=0;" parent="1" vertex="1">
            <mxGeometry x="373" y="80" width="100" height="60" as="geometry" />
          </mxCell>
        </object>
        <mxCell id="Ui8pRBqQDjIUiMeEuSIe-25" value="User Login" style="text;html=1;strokeColor=none;fillColor=none;align=center;verticalAlign=middle;whiteSpace=wrap;rounded=0;" parent="1" vertex="1">
          <mxGeometry x="386" y="100" width="75" height="20" as="geometry" />
        </mxCell>
        <mxCell id="Ui8pRBqQDjIUiMeEuSIe-26" value="role" style="text;html=1;strokeColor=none;fillColor=none;align=center;verticalAlign=middle;whiteSpace=wrap;rounded=0;" parent="1" vertex="1">
          <mxGeometry x="403" y="200" width="40" height="20" as="geometry" />
        </mxCell>
        <mxCell id="Ui8pRBqQDjIUiMeEuSIe-27" value="" style="endArrow=classic;html=1;exitX=0.5;exitY=1;exitDx=0;exitDy=0;exitPerimeter=0;entryX=0.5;entryY=0;entryDx=0;entryDy=0;" parent="1" source="Ui8pRBqQDjIUiMeEuSIe-24" target="Ui8pRBqQDjIUiMeEuSIe-22" edge="1">
          <mxGeometry width="50" height="50" relative="1" as="geometry">
            <mxPoint x="410" y="240" as="sourcePoint" />
            <mxPoint x="460" y="190" as="targetPoint" />
          </mxGeometry>
        </mxCell>
        <mxCell id="Ui8pRBqQDjIUiMeEuSIe-30" value="role = teacher" style="text;html=1;strokeColor=none;fillColor=none;align=center;verticalAlign=middle;whiteSpace=wrap;rounded=0;" parent="1" vertex="1">
          <mxGeometry x="275" y="180" width="100" height="20" as="geometry" />
        </mxCell>
        <mxCell id="Ui8pRBqQDjIUiMeEuSIe-31" value="role = student" style="text;html=1;strokeColor=none;fillColor=none;align=center;verticalAlign=middle;whiteSpace=wrap;rounded=0;" parent="1" vertex="1">
          <mxGeometry x="480" y="180" width="80" height="20" as="geometry" />
        </mxCell>
        <mxCell id="Ui8pRBqQDjIUiMeEuSIe-37" value="" style="endArrow=classic;html=1;entryX=0;entryY=0.5;entryDx=0;entryDy=0;entryPerimeter=0;" parent="1" target="Ui8pRBqQDjIUiMeEuSIe-7" edge="1">
          <mxGeometry width="50" height="50" relative="1" as="geometry">
            <mxPoint x="190" y="460" as="sourcePoint" />
            <mxPoint x="380" y="480" as="targetPoint" />
          </mxGeometry>
        </mxCell>
        <mxCell id="Ui8pRBqQDjIUiMeEuSIe-38" value="" style="endArrow=classic;html=1;entryX=0;entryY=0.5;entryDx=0;entryDy=0;entryPerimeter=0;" parent="1" target="Ui8pRBqQDjIUiMeEuSIe-8" edge="1">
          <mxGeometry width="50" height="50" relative="1" as="geometry">
            <mxPoint x="190" y="530" as="sourcePoint" />
            <mxPoint x="380" y="470" as="targetPoint" />
          </mxGeometry>
        </mxCell>
        <mxCell id="Ui8pRBqQDjIUiMeEuSIe-39" value="" style="endArrow=classic;html=1;entryX=0;entryY=0.5;entryDx=0;entryDy=0;" parent="1" target="Ui8pRBqQDjIUiMeEuSIe-13" edge="1">
          <mxGeometry width="50" height="50" relative="1" as="geometry">
            <mxPoint x="190" y="600" as="sourcePoint" />
            <mxPoint x="380" y="460" as="targetPoint" />
          </mxGeometry>
        </mxCell>
        <mxCell id="Ui8pRBqQDjIUiMeEuSIe-42" style="edgeStyle=orthogonalEdgeStyle;rounded=0;orthogonalLoop=1;jettySize=auto;html=1;" parent="1" source="Ui8pRBqQDjIUiMeEuSIe-40" edge="1">
          <mxGeometry relative="1" as="geometry">
            <mxPoint x="470" y="520" as="targetPoint" />
          </mxGeometry>
        </mxCell>
        <mxCell id="Ui8pRBqQDjIUiMeEuSIe-43" style="edgeStyle=orthogonalEdgeStyle;rounded=0;orthogonalLoop=1;jettySize=auto;html=1;exitX=0.5;exitY=1;exitDx=0;exitDy=0;" parent="1" source="Ui8pRBqQDjIUiMeEuSIe-40" edge="1">
          <mxGeometry relative="1" as="geometry">
            <mxPoint x="570.3333333333335" y="520" as="targetPoint" />
          </mxGeometry>
        </mxCell>
        <mxCell id="Ui8pRBqQDjIUiMeEuSIe-44" style="edgeStyle=orthogonalEdgeStyle;rounded=0;orthogonalLoop=1;jettySize=auto;html=1;" parent="1" source="Ui8pRBqQDjIUiMeEuSIe-40" edge="1">
          <mxGeometry relative="1" as="geometry">
            <mxPoint x="670" y="520" as="targetPoint" />
          </mxGeometry>
        </mxCell>
        <mxCell id="Ui8pRBqQDjIUiMeEuSIe-40" value="" style="rhombus;whiteSpace=wrap;html=1;" parent="1" vertex="1">
          <mxGeometry x="520" y="380" width="100" height="80" as="geometry" />
        </mxCell>
        <mxCell id="Ui8pRBqQDjIUiMeEuSIe-45" value="Facial&lt;br&gt;Recognition" style="text;html=1;strokeColor=none;fillColor=none;align=center;verticalAlign=middle;whiteSpace=wrap;rounded=0;" parent="1" vertex="1">
          <mxGeometry x="540" y="410" width="60" height="20" as="geometry" />
        </mxCell>
        <mxCell id="Ui8pRBqQDjIUiMeEuSIe-46" value="Recognised" style="text;html=1;strokeColor=none;fillColor=none;align=center;verticalAlign=middle;whiteSpace=wrap;rounded=0;fontSize=10;" parent="1" vertex="1">
          <mxGeometry x="480" y="400" width="40" height="20" as="geometry" />
        </mxCell>
        <mxCell id="Ui8pRBqQDjIUiMeEuSIe-47" value="No one There" style="text;html=1;strokeColor=none;fillColor=none;align=center;verticalAlign=middle;whiteSpace=wrap;rounded=0;fontSize=10;" parent="1" vertex="1">
          <mxGeometry x="530" y="470" width="40" height="20" as="geometry" />
        </mxCell>
        <mxCell id="Ui8pRBqQDjIUiMeEuSIe-48" value="Someone Else" style="text;html=1;strokeColor=none;fillColor=none;align=center;verticalAlign=middle;whiteSpace=wrap;rounded=0;fontSize=10;" parent="1" vertex="1">
          <mxGeometry x="630" y="470" width="40" height="20" as="geometry" />
        </mxCell>
        <mxCell id="Ui8pRBqQDjIUiMeEuSIe-51" value="Dashboard" style="swimlane;fontSize=10;" parent="1" vertex="1">
          <mxGeometry x="173" y="400" width="200" height="310" as="geometry">
            <mxRectangle x="173" y="350" width="80" height="23" as="alternateBounds" />
          </mxGeometry>
        </mxCell>
        <mxCell id="g6IcXYT7d06s3RMeSlF0-2" style="edgeStyle=orthogonalEdgeStyle;rounded=0;orthogonalLoop=1;jettySize=auto;html=1;exitX=0;exitY=0.5;exitDx=0;exitDy=0;fontSize=10;" edge="1" parent="1" source="Ui8pRBqQDjIUiMeEuSIe-52" target="g6IcXYT7d06s3RMeSlF0-1">
          <mxGeometry relative="1" as="geometry">
            <mxPoint x="410" y="680" as="targetPoint" />
            <Array as="points">
              <mxPoint x="410" y="550" />
              <mxPoint x="410" y="620" />
            </Array>
          </mxGeometry>
        </mxCell>
        <mxCell id="Ui8pRBqQDjIUiMeEuSIe-52" value="" style="rounded=0;whiteSpace=wrap;html=1;fontSize=10;" parent="1" vertex="1">
          <mxGeometry x="430" y="520" width="80" height="60" as="geometry" />
        </mxCell>
        <mxCell id="g6IcXYT7d06s3RMeSlF0-4" style="edgeStyle=orthogonalEdgeStyle;rounded=0;orthogonalLoop=1;jettySize=auto;html=1;fontSize=10;" edge="1" parent="1" source="Ui8pRBqQDjIUiMeEuSIe-53" target="g6IcXYT7d06s3RMeSlF0-1">
          <mxGeometry relative="1" as="geometry">
            <Array as="points">
              <mxPoint x="620" y="600" />
              <mxPoint x="480" y="600" />
            </Array>
          </mxGeometry>
        </mxCell>
        <mxCell id="Ui8pRBqQDjIUiMeEuSIe-53" value="" style="rounded=0;whiteSpace=wrap;html=1;fontSize=10;" parent="1" vertex="1">
          <mxGeometry x="560" y="520" width="120" height="60" as="geometry" />
        </mxCell>
        <mxCell id="Ui8pRBqQDjIUiMeEuSIe-54" value="Verified API" style="text;html=1;strokeColor=none;fillColor=none;align=center;verticalAlign=middle;whiteSpace=wrap;rounded=0;fontSize=10;" parent="1" vertex="1">
          <mxGeometry x="446.5" y="540" width="47" height="20" as="geometry" />
        </mxCell>
        <mxCell id="Ui8pRBqQDjIUiMeEuSIe-55" value="Verification Failed API" style="text;html=1;strokeColor=none;fillColor=none;align=center;verticalAlign=middle;whiteSpace=wrap;rounded=0;fontSize=10;" parent="1" vertex="1">
          <mxGeometry x="600" y="540" width="40" height="20" as="geometry" />
        </mxCell>
        <mxCell id="Ui8pRBqQDjIUiMeEuSIe-56" value="" style="shape=datastore;whiteSpace=wrap;html=1;fontSize=10;" parent="1" vertex="1">
          <mxGeometry x="610" y="651.49" width="80" height="70" as="geometry" />
        </mxCell>
        <mxCell id="g6IcXYT7d06s3RMeSlF0-6" style="edgeStyle=orthogonalEdgeStyle;rounded=0;orthogonalLoop=1;jettySize=auto;html=1;entryX=1;entryY=0.75;entryDx=0;entryDy=0;fontSize=10;" edge="1" parent="1" source="g6IcXYT7d06s3RMeSlF0-1" target="Ui8pRBqQDjIUiMeEuSIe-51">
          <mxGeometry relative="1" as="geometry" />
        </mxCell>
        <mxCell id="g6IcXYT7d06s3RMeSlF0-1" value="" style="outlineConnect=0;fontColor=#232F3E;gradientColor=none;fillColor=#232F3E;strokeColor=none;dashed=0;verticalLabelPosition=bottom;verticalAlign=top;align=center;html=1;fontSize=12;fontStyle=0;aspect=fixed;pointerEvents=1;shape=mxgraph.aws4.traditional_server;" vertex="1" parent="1">
          <mxGeometry x="437.84" y="610" width="64.32" height="111.49" as="geometry" />
        </mxCell>
        <mxCell id="g6IcXYT7d06s3RMeSlF0-5" value="" style="shape=flexArrow;endArrow=classic;startArrow=classic;html=1;fontSize=10;" edge="1" parent="1">
          <mxGeometry width="100" height="100" relative="1" as="geometry">
            <mxPoint x="500" y="680" as="sourcePoint" />
            <mxPoint x="610" y="680" as="targetPoint" />
          </mxGeometry>
        </mxCell>
        <mxCell id="g6IcXYT7d06s3RMeSlF0-10" style="edgeStyle=orthogonalEdgeStyle;rounded=0;orthogonalLoop=1;jettySize=auto;html=1;entryX=0;entryY=0.5;entryDx=0;entryDy=0;entryPerimeter=0;fontSize=10;" edge="1" parent="1" target="Ui8pRBqQDjIUiMeEuSIe-24">
          <mxGeometry relative="1" as="geometry">
            <mxPoint x="470" y="720" as="sourcePoint" />
            <Array as="points">
              <mxPoint x="470" y="740" />
              <mxPoint x="130" y="740" />
              <mxPoint x="130" y="110" />
            </Array>
          </mxGeometry>
        </mxCell>
        <mxCell id="g6IcXYT7d06s3RMeSlF0-7" value="Node.js&lt;br&gt;Server" style="text;html=1;strokeColor=none;fillColor=none;align=center;verticalAlign=middle;whiteSpace=wrap;rounded=0;fontSize=10;" vertex="1" parent="1">
          <mxGeometry x="443" y="670" width="53.5" height="30" as="geometry" />
        </mxCell>
        <mxCell id="g6IcXYT7d06s3RMeSlF0-8" value="MongoDB" style="text;html=1;strokeColor=none;fillColor=none;align=center;verticalAlign=middle;whiteSpace=wrap;rounded=0;fontSize=10;" vertex="1" parent="1">
          <mxGeometry x="630" y="690" width="40" height="20" as="geometry" />
        </mxCell>
        <mxCell id="g6IcXYT7d06s3RMeSlF0-11" value="&lt;font style=&quot;font-size: 12px&quot;&gt;User Authentication Details&lt;/font&gt;" style="text;html=1;strokeColor=none;fillColor=none;align=center;verticalAlign=middle;whiteSpace=wrap;rounded=0;fontSize=10;" vertex="1" parent="1">
          <mxGeometry x="175" y="120" width="40" height="20" as="geometry" />
        </mxCell>
      </root>
    </mxGraphModel>
  </diagram>
</mxfile>
